<?xml version="1.0" encoding="UTF-8"?> <svg xmlns="http://www.w3.org/2000/svg" id="Слой_1" data-name="Слой 1" viewBox="0 0 596 596"><defs><style>.cls-1{fill:#fff;}</style></defs><path class="cls-1" d="M921,843.5a287.51,287.51,0,1,1,203.29-84.21A285.62,285.62,0,0,1,921,843.5Z" transform="translate(-623 -258)"></path><path d="M921,279a276.11,276.11,0,1,1-107.81,21.76A275.19,275.19,0,0,1,921,279m0-21c-164.58,0-298,133.42-298,298S756.42,854,921,854s298-133.42,298-298S1085.58,258,921,258Z" transform="translate(-623 -258)"></path><path d="M919.24,824.45c-55.74-7.73-98.66-21-135.06-41.64-41.74-23.71-74.9-57.57-101.38-103.49l-1-1.74.34-2c7.85-44.33,64.3-81.29,110.28-104.5,51.36-25.92,103.72-41.79,115.11-41.79a9.54,9.54,0,0,1,3.34.51c.9.33,5.26,1.33,9.87,2.4,23.31,5.38,77.89,18,129.28,40.61,65.41,28.79,102.22,63.51,109.38,103.18l.36,2-1,1.74c-36,63-95.55,136.35-238.46,144.76l-.54,0Z" transform="translate(-623 -258)"></path><path class="cls-1" d="M907.54,534.82A4.52,4.52,0,0,1,909,535c11,4,226.94,42,245,142-38,66.61-98,134-234,142-99.47-13.79-178-48-232.43-142.43,14-79.14,198.92-141.74,220-141.75m0-11h0c-13.39,0-67.11,16.91-117.58,42.38-29.49,14.89-53.8,30.54-72.26,46.52-23.5,20.34-37.28,41.18-41,61.93l-.7,4,2,3.46c27,46.8,60.8,81.32,103.42,105.53,37,21,80.57,34.48,137,42.31l1.07.14,1.09-.06c33.34-2,64.1-7.59,91.43-16.74a258.64,258.64,0,0,0,68-34.3c32.6-23.22,59.11-53.88,83.43-96.49l2-3.47-.72-3.94c-7.51-41.58-45.39-77.66-112.58-107.24C1000.38,545,945.45,532.29,922,526.87c-4.07-.94-8.27-1.91-9.31-2.24a15.32,15.32,0,0,0-5.14-.81Z" transform="translate(-623 -258)"></path><path d="M920,658c-35,0-67.53-20.27-94.06-58.62-21.09-30.48-38.37-72.48-48.65-118.25-10.57-47.08-1.71-92,25-126.38s68.35-54.2,117.38-55.74c1.71-.06,3.44-.09,5.14-.09,45.16,0,86.24,19.35,112.73,53.08,27.51,35,36.68,82.19,25.17,129.35-11,45-28.66,86.65-49.73,117.21C986.11,637.44,954,658,920,658Z" transform="translate(-623 -258)"></path><path class="cls-1" d="M924.76,310.92c87.94,0,148.31,77.21,126.24,167.58C1031.79,557.15,986,646,920,646c-68,0-112.85-86.69-131-167.5C769.2,390.36,824.26,314,920,311c1.6-.05,3.18-.08,4.76-.08m0-24h0c-1.83,0-3.68,0-5.51.08-52.68,1.66-97.6,23.1-126.49,60.39a150,150,0,0,0-28.54,63c-4.74,23.56-4.28,48.26,1.36,73.4,10.62,47.24,28.55,90.73,50.49,122.45C844.94,647.94,880.88,670,920,670c38.1,0,73.64-22.35,102.8-64.63,21.89-31.73,40.18-74.77,51.51-121.18,6.3-25.79,7-51.27,2-75.72a151.47,151.47,0,0,0-29.36-63.87,147.58,147.58,0,0,0-52.66-42.23,159.1,159.1,0,0,0-69.5-15.44Z" transform="translate(-623 -258)"></path></svg> 